# xmcd
# 
# Track frame offsets:
#     150
#     14973
#     44457
# 
# Disc length: 1019
# 
# Revision: 0
# Processed by: cddbd v1.5.2PL0 Copyright (c) Steve Scherf et al.
# Submitted via: BonkEnc v1.0.5
# 
DISCID=2503f903
DTITLE=Dave McCullen - B*tch [CDs)
DYEAR=0
DGENRE=House
TTITLE0=B*tch (Radio Edit)
TTITLE1=B*tch (Club Extended)
TTITLE2=B*tch (Sunset Strippers Remix)
EXTD=
EXTT0=
EXTT1=
EXTT2=
PLAYORDER=
